<?xml version="1.0" standalone="no"?><!DOCTYPE svg PUBLIC "-//W3C//DTD SVG 1.1//EN" "http://www.w3.org/Graphics/SVG/1.1/DTD/svg11.dtd"><svg t="1762399715799" class="icon" viewBox="0 0 1024 1024" version="1.1" xmlns="http://www.w3.org/2000/svg" p-id="57235" xmlns:xlink="http://www.w3.org/1999/xlink" width="200" height="200"><path d="M512 0a512 512 0 1 1 0 1024A512 512 0 0 1 512 0z m0 66.999A445.001 445.001 0 1 0 512 957 445.001 445.001 0 0 0 512 67zM331.995 366.226c21.139 0 39.717 13.897 45.715 34.158l69.12 233.618a26.478 26.478 0 0 1-18.798 33.134l-5.413 0.805a27.355 27.355 0 0 1-27.794-20.48l-14.482-55.882h-98.304l-14.775 58.88a25.82 25.82 0 0 1-32.402 18.506l-4.974-2.048a26.77 26.77 0 0 1-13.166-31.232l69.486-235.228a47.69 47.69 0 0 1 45.787-34.158z m251.173 0c67.218 0 118.784 23.406 118.784 95.086 0 69.193-51.931 100.279-117.102 100.279h-40.667v77.458a30.281 30.281 0 0 1-60.562 0V402.798a36.571 36.571 0 0 1 36.571-36.572z m186.953 0c16.75 0 30.281 13.605 30.281 30.281V639.05a30.281 30.281 0 0 1-60.562 0V396.434c0-16.676 13.531-30.28 30.281-30.28z m-438.564 55.735h-1.61c-7.826 33.207-16.822 57.783-25.819 89.234l-8.997 33.207h72.046l-8.996-33.207c-9.436-31.451-17.555-56.466-26.624-89.234z m247.15-7.826h-34.378v99.547h36.425c41.765 0 61.806-17.554 61.806-52.443 0-35.182-22.09-47.104-63.854-47.104z" p-id="57236" fill="#8a8a8a"></path></svg>