<?xml version="1.0" standalone="no"?><!DOCTYPE svg PUBLIC "-//W3C//DTD SVG 1.1//EN" "http://www.w3.org/Graphics/SVG/1.1/DTD/svg11.dtd"><svg t="1762399843912" class="icon" viewBox="0 0 1024 1024" version="1.1" xmlns="http://www.w3.org/2000/svg" p-id="63657" xmlns:xlink="http://www.w3.org/1999/xlink" width="200" height="200"><path d="M424.106667 144.853333l87.552 87.509334 87.466666-87.466667a197.973333 197.973333 0 1 1 279.978667 279.936l-87.466667 87.466667 87.466667 87.552a197.973333 197.973333 0 1 1-279.978667 279.893333l-87.466666-87.466667-87.509334 87.466667a197.973333 197.973333 0 0 1-279.936-279.893333l87.466667-87.509334-87.509333-87.509333A197.973333 197.973333 0 1 1 424.106667 144.853333z m210.048 34.986667L179.2 634.88a148.48 148.48 0 1 0 209.92 209.92l104.661333-104.576 0.384-0.426667 244.949334-244.949333 0.384-0.341333 104.618666-104.618667a148.48 148.48 0 1 0-209.962666-209.962667z m122.453333 367.488l-209.962667 209.962667 87.466667 87.466666a148.48 148.48 0 0 0 210.005333-209.92l-87.466666-87.509333h-0.042667z m-192.469333-227.456l139.946666 139.946667a24.746667 24.746667 0 0 1 0 34.986666l-209.92 210.005334a24.746667 24.746667 0 0 1-34.986666 0L319.146667 564.821333a24.746667 24.746667 0 0 1 0-34.986666l209.92-209.962667a24.746667 24.746667 0 0 1 34.986666 0z m-17.493334 52.48l-174.933333 174.933333 104.96 105.045334 174.933333-174.976-104.96-105.002667zM179.2 179.882667a148.48 148.48 0 0 0 0 209.92l87.466667 87.509333 209.92-209.92-87.466667-87.509333-4.522667-4.394667a148.48 148.48 0 0 0-205.44 4.394667z" p-id="63658" fill="#8a8a8a"></path></svg>