<?xml version="1.0" standalone="no"?><!DOCTYPE svg PUBLIC "-//W3C//DTD SVG 1.1//EN" "http://www.w3.org/Graphics/SVG/1.1/DTD/svg11.dtd"><svg t="1759418950053" class="icon" viewBox="0 0 1024 1024" version="1.1" xmlns="http://www.w3.org/2000/svg" p-id="1730" xmlns:xlink="http://www.w3.org/1999/xlink" width="200" height="200"><path d="M565.645894 9.27909c54.613 19.569658 110.648213 37.546437 167.934974 53.873449 59.391637 16.895897 119.35216 31.857583 179.938456 44.771281 30.719812 6.542182 52.906343 34.70201 52.906343 67.46981L967.10833 460.518999v3.413313c0 212.251147-151.551074 399.016228-454.766999 560.067688-303.329702-147.227545-454.766999-333.935737-454.766998-560.067688L56.89167 175.79185c-0.056889-32.938465 22.186531-61.325847 53.077009-67.86803a2678.881407 2678.881407 0 0 0 181.929555-44.771281c56.205879-15.928792 111.387764-33.848682 165.602543-53.475229A158.832807 158.832807 0 0 1 565.645894 9.27909zM418.702792 543.121161H280.861857a17.806113 17.806113 0 0 0-17.749225 17.749225v137.784047l44.543728-44.543728a248.944256 248.944256 0 0 0 451.296798-110.989544h-62.861839a186.708192 186.708192 0 0 1-343.493012 66.047596L418.702792 543.121161zM512 263.115761a248.944256 248.944256 0 0 0-246.953158 217.769336h62.861839a186.708192 186.708192 0 0 1 343.493012-66.047597L605.297208 480.885097h137.727158c9.841718 0 17.806113-7.964396 17.806113-17.749225V325.351825l-44.543727 44.543728A248.602925 248.602925 0 0 0 512 263.115761z" fill="#20CED2" p-id="1731"></path></svg>