<?xml version="1.0" standalone="no"?><!DOCTYPE svg PUBLIC "-//W3C//DTD SVG 1.1//EN" "http://www.w3.org/Graphics/SVG/1.1/DTD/svg11.dtd"><svg t="1762399957218" class="icon" viewBox="0 0 1024 1024" version="1.1" xmlns="http://www.w3.org/2000/svg" p-id="67621" xmlns:xlink="http://www.w3.org/1999/xlink" width="200" height="200"><path d="M881.516 229.633L768.408 118.511c-24.652-24.156-73.252-43.99-108.117-43.99h-380.1c-34.871 0-63.322 28.004-63.322 62.186v301.035h50.668V136.711c0-6.771 5.887-12.425 12.713-12.425h380.088c3.738 0 8.084 0.471 12.656 1.331v197.7h201.381c0.9 4.498 1.377 29.055 1.377 32.847v531.13c0 6.77-5.891 12.416-12.711 12.416h-582.85c-6.896 0-12.712-5.758-12.712-12.408v-89.881h-50.681v89.881c0 34.236 28.461 62.176 63.332 62.176h582.848c34.885 0 63.332-27.936 63.332-62.176v-531.08c0.061-34.247-20.13-102.428-44.794-126.589z m-156.83 49.214V154.521a59.263 59.263 0 0 1 8.887 7.08l113.654 108.625a67.202 67.202 0 0 1 7.457 8.62H724.686z m0 0" fill="#8a8a8a" p-id="67622"></path><path d="M768.885 452.057H133.836c-19.962 0-36.146 15.303-36.146 34.178V721c0 18.879 16.185 34.18 36.146 34.18h635.042c19.967 0 36.146-15.301 36.146-34.18V486.235c0.007-18.879-16.178-34.178-36.139-34.178zM224.15 627.17c0.277 2.252 0.648 4.639 1.104 7.154 0.453 2.52 1.579 4.936 3.361 7.256 1.787 2.32 4.678 4.305 8.671 5.963 3.993 1.656 8.316 2.715 12.981 3.178 4.654 0.463 9.857 0.531 15.607 0.201 5.18-0.268 9.962-0.83 14.344-1.689 4.377-0.859 7.846-2.453 10.404-4.77 2.555-2.32 3.764-5.068 3.623-8.248-0.142-2.516-1.611-5.152-4.412-7.902-2.803-2.75-8.83-4.918-18.078-6.508l-28.059-4.67c-7.85-1.326-14.676-2.766-20.491-4.322-5.815-1.555-11.927-4.176-18.339-7.85-6.41-3.678-11.843-8.896-16.29-15.65-4.448-6.76-6.725-13.697-6.83-20.82-0.106-7.117 0.926-13.262 3.102-18.432 2.237-5.365 6.183-10.814 11.821-16.346 5.639-5.529 13.714-10.068 24.223-13.613 10.508-3.543 23.082-5.416 37.729-5.611 7.566-0.068 15.395 0.328 23.486 1.188 8.092 0.865 15.885 2.537 23.386 5.02 7.492 2.486 14.026 6.08 19.6 10.781 5.568 4.705 10.245 10.254 14.027 16.646 3.786 6.391 5.921 12.074 6.411 17.039l0.843 7.355h-48.029a36.669 36.669 0 0 0-2.471-5.566c-0.944-1.723-3.31-3.793-7.091-6.213-3.787-2.414-8.375-4.004-13.771-4.768-5.392-0.758-12.486-0.926-21.28-0.496-8.79 0.43-14.64 1.984-17.55 4.668-2.906 2.688-4.257 5.354-4.045 8.002 0.141 2.717 1.575 5.064 4.311 7.055 2.731 1.986 7.003 3.477 12.818 4.469 5.815 0.994 14.19 2.273 25.119 3.826 10.931 1.561 19.773 3.15 26.533 4.773 6.76 1.621 12.928 4.01 18.496 7.15 5.572 3.15 10.109 6.859 13.612 11.131 3.499 4.271 5.97 8.678 7.409 13.217 1.434 4.535 2.258 9.723 2.471 15.551 0.207 5.834-0.354 11.264-1.686 16.295-1.889 7.09-5.291 13.381-10.193 18.879-4.906 5.5-10.704 9.738-17.394 12.721a88.196 88.196 0 0 1-20.862 6.359c-7.215 1.26-13.52 2.002-18.916 2.236-5.396 0.232-10.369 0.313-14.922 0.252-9.39-0.068-17.53-0.586-24.432-1.545-6.936-0.969-13.75-2.6-20.338-4.869-6.658-2.283-12.575-5.561-17.759-9.834-5.185-4.277-9.514-9.889-12.982-16.848-3.468-6.955-5.829-14.305-7.09-22.057l-1.787-9.738h49.605z m331.879 30.902l-23.434 35.375-24.49-14.01a156.072 156.072 0 0 1-18.021 8.695c-6.274 2.551-17.045 3.893-32.316 4.025-17.168 0.201-31.686-1.939-43.563-6.412-11.874-4.469-21.979-11.227-30.317-20.268-8.336-9.041-14.08-18.633-17.235-28.768-3.15-10.139-4.694-21.594-4.624-34.383 0-6.955 0.962-15.648 2.891-26.084 1.928-10.434 7.938-20.869 18.023-31.299 10.088-10.436 20.929-18.168 32.529-23.205 11.592-5.031 25.098-7.682 40.51-7.949 12.611-0.133 25.381 1.791 38.309 5.762 12.924 3.979 23.542 9.973 31.84 17.988 8.305 8.02 14.434 16.133 18.391 24.344 3.959 8.219 6.482 16.896 7.568 26.039a87.515 87.515 0 0 1-0.998 27.221c-1.822 9.08-4.311 16.436-7.461 22.063l-5.361 10.035 17.759 10.831z m-109.295-15.498l25.958-35.576 25.853 15.799c1.402-3.838 2.471-7.25 3.203-10.234 0.737-2.982 1.107-7.055 1.107-12.223a53.512 53.512 0 0 0-3.521-18.529c-2.276-5.994-7.307-11.344-15.081-16.049-7.774-4.703-16.921-6.924-27.427-6.66-10.44 0.334-19.164 2.816-26.171 7.457-7.007 4.635-11.944 9.92-14.817 15.85-2.871 5.928-4.328 11.984-4.363 18.182-0.035 6.195 0.684 11.945 2.158 17.242 1.539 6.029 3.904 11.145 7.09 15.352 3.19 4.207 6.777 7.236 10.771 9.09l7.885 4.076 24.379 17.689 4.938-6.658-21.962-14.808z m124.637 49.289V514.49h49.604v133.844H728.17v43.525H571.371v0.004z m0 0" fill="#8a8a8a" p-id="67623"></path></svg>